<mxfile host="app.diagrams.net" modified="2021-05-13T14:40:50.367Z" agent="5.0 (X11; Linux x86_64) AppleWebKit/537.36 (KHTML, like Gecko) Chrome/90.0.4430.93 Safari/537.36" etag="z9JqsYvqS2HhjxZ0rE-2" version="14.6.12" type="github">
  <diagram id="R2lEEEUBdFMjLlhIrx00" name="Page-1">
    <mxGraphModel dx="1422" dy="1933" grid="1" gridSize="10" guides="1" tooltips="1" connect="1" arrows="1" fold="1" page="1" pageScale="1" pageWidth="850" pageHeight="1100" math="0" shadow="0" extFonts="Permanent Marker^https://fonts.googleapis.com/css?family=Permanent+Marker">
      <root>
        <mxCell id="0" />
        <mxCell id="1" parent="0" />
        <mxCell id="C-vyLk0tnHw3VtMMgP7b-1" value="" style="edgeStyle=entityRelationEdgeStyle;endArrow=ERzeroToMany;startArrow=ERone;endFill=1;startFill=0;" parent="1" source="C-vyLk0tnHw3VtMMgP7b-24" target="C-vyLk0tnHw3VtMMgP7b-6" edge="1">
          <mxGeometry width="100" height="100" relative="1" as="geometry">
            <mxPoint x="430" y="990" as="sourcePoint" />
            <mxPoint x="530" y="890" as="targetPoint" />
          </mxGeometry>
        </mxCell>
        <mxCell id="C-vyLk0tnHw3VtMMgP7b-12" value="" style="edgeStyle=entityRelationEdgeStyle;endArrow=ERzeroToMany;startArrow=ERone;endFill=1;startFill=0;exitX=1;exitY=0.5;exitDx=0;exitDy=0;entryX=0;entryY=0.5;entryDx=0;entryDy=0;" parent="1" source="C-vyLk0tnHw3VtMMgP7b-14" target="C-vyLk0tnHw3VtMMgP7b-9" edge="1">
          <mxGeometry width="100" height="100" relative="1" as="geometry">
            <mxPoint x="700" y="450" as="sourcePoint" />
            <mxPoint x="730" y="650" as="targetPoint" />
          </mxGeometry>
        </mxCell>
        <mxCell id="C-vyLk0tnHw3VtMMgP7b-2" value="Post" style="shape=table;startSize=30;container=1;collapsible=1;childLayout=tableLayout;fixedRows=1;rowLines=0;fontStyle=1;align=center;resizeLast=1;" parent="1" vertex="1">
          <mxGeometry x="560" y="140" width="170" height="190" as="geometry" />
        </mxCell>
        <mxCell id="C-vyLk0tnHw3VtMMgP7b-3" value="" style="shape=partialRectangle;collapsible=0;dropTarget=0;pointerEvents=0;fillColor=none;points=[[0,0.5],[1,0.5]];portConstraint=eastwest;top=0;left=0;right=0;bottom=1;" parent="C-vyLk0tnHw3VtMMgP7b-2" vertex="1">
          <mxGeometry y="30" width="170" height="30" as="geometry" />
        </mxCell>
        <mxCell id="C-vyLk0tnHw3VtMMgP7b-4" value="PK" style="shape=partialRectangle;overflow=hidden;connectable=0;fillColor=none;top=0;left=0;bottom=0;right=0;fontStyle=1;" parent="C-vyLk0tnHw3VtMMgP7b-3" vertex="1">
          <mxGeometry width="30" height="30" as="geometry" />
        </mxCell>
        <mxCell id="C-vyLk0tnHw3VtMMgP7b-5" value="ID" style="shape=partialRectangle;overflow=hidden;connectable=0;fillColor=none;top=0;left=0;bottom=0;right=0;align=left;spacingLeft=6;fontStyle=5;" parent="C-vyLk0tnHw3VtMMgP7b-3" vertex="1">
          <mxGeometry x="30" width="140" height="30" as="geometry" />
        </mxCell>
        <mxCell id="C-vyLk0tnHw3VtMMgP7b-6" value="" style="shape=partialRectangle;collapsible=0;dropTarget=0;pointerEvents=0;fillColor=none;points=[[0,0.5],[1,0.5]];portConstraint=eastwest;top=0;left=0;right=0;bottom=0;" parent="C-vyLk0tnHw3VtMMgP7b-2" vertex="1">
          <mxGeometry y="60" width="170" height="30" as="geometry" />
        </mxCell>
        <mxCell id="C-vyLk0tnHw3VtMMgP7b-7" value="FK1" style="shape=partialRectangle;overflow=hidden;connectable=0;fillColor=none;top=0;left=0;bottom=0;right=0;" parent="C-vyLk0tnHw3VtMMgP7b-6" vertex="1">
          <mxGeometry width="30" height="30" as="geometry" />
        </mxCell>
        <mxCell id="C-vyLk0tnHw3VtMMgP7b-8" value="Owner ID" style="shape=partialRectangle;overflow=hidden;connectable=0;fillColor=none;top=0;left=0;bottom=0;right=0;align=left;spacingLeft=6;" parent="C-vyLk0tnHw3VtMMgP7b-6" vertex="1">
          <mxGeometry x="30" width="140" height="30" as="geometry" />
        </mxCell>
        <mxCell id="C-vyLk0tnHw3VtMMgP7b-9" value="" style="shape=partialRectangle;collapsible=0;dropTarget=0;pointerEvents=0;fillColor=none;points=[[0,0.5],[1,0.5]];portConstraint=eastwest;top=0;left=0;right=0;bottom=0;" parent="C-vyLk0tnHw3VtMMgP7b-2" vertex="1">
          <mxGeometry y="90" width="170" height="30" as="geometry" />
        </mxCell>
        <mxCell id="C-vyLk0tnHw3VtMMgP7b-10" value="FK2" style="shape=partialRectangle;overflow=hidden;connectable=0;fillColor=none;top=0;left=0;bottom=0;right=0;" parent="C-vyLk0tnHw3VtMMgP7b-9" vertex="1">
          <mxGeometry width="30" height="30" as="geometry" />
        </mxCell>
        <mxCell id="C-vyLk0tnHw3VtMMgP7b-11" value="Apartment ID" style="shape=partialRectangle;overflow=hidden;connectable=0;fillColor=none;top=0;left=0;bottom=0;right=0;align=left;spacingLeft=6;" parent="C-vyLk0tnHw3VtMMgP7b-9" vertex="1">
          <mxGeometry x="30" width="140" height="30" as="geometry" />
        </mxCell>
        <mxCell id="XpnV4tskkDyqHlUHWZ18-37" value="" style="shape=partialRectangle;collapsible=0;dropTarget=0;pointerEvents=0;fillColor=none;points=[[0,0.5],[1,0.5]];portConstraint=eastwest;top=0;left=0;right=0;bottom=0;" vertex="1" parent="C-vyLk0tnHw3VtMMgP7b-2">
          <mxGeometry y="120" width="170" height="30" as="geometry" />
        </mxCell>
        <mxCell id="XpnV4tskkDyqHlUHWZ18-38" value="" style="shape=partialRectangle;overflow=hidden;connectable=0;fillColor=none;top=0;left=0;bottom=0;right=0;" vertex="1" parent="XpnV4tskkDyqHlUHWZ18-37">
          <mxGeometry width="30" height="30" as="geometry" />
        </mxCell>
        <mxCell id="XpnV4tskkDyqHlUHWZ18-39" value="Publication date" style="shape=partialRectangle;overflow=hidden;connectable=0;fillColor=none;top=0;left=0;bottom=0;right=0;align=left;spacingLeft=6;" vertex="1" parent="XpnV4tskkDyqHlUHWZ18-37">
          <mxGeometry x="30" width="140" height="30" as="geometry" />
        </mxCell>
        <mxCell id="XpnV4tskkDyqHlUHWZ18-212" value="" style="shape=partialRectangle;collapsible=0;dropTarget=0;pointerEvents=0;fillColor=none;points=[[0,0.5],[1,0.5]];portConstraint=eastwest;top=0;left=0;right=0;bottom=0;" vertex="1" parent="C-vyLk0tnHw3VtMMgP7b-2">
          <mxGeometry y="150" width="170" height="30" as="geometry" />
        </mxCell>
        <mxCell id="XpnV4tskkDyqHlUHWZ18-213" value="" style="shape=partialRectangle;overflow=hidden;connectable=0;fillColor=none;top=0;left=0;bottom=0;right=0;" vertex="1" parent="XpnV4tskkDyqHlUHWZ18-212">
          <mxGeometry width="30" height="30" as="geometry" />
        </mxCell>
        <mxCell id="XpnV4tskkDyqHlUHWZ18-214" value="Cost" style="shape=partialRectangle;overflow=hidden;connectable=0;fillColor=none;top=0;left=0;bottom=0;right=0;align=left;spacingLeft=6;" vertex="1" parent="XpnV4tskkDyqHlUHWZ18-212">
          <mxGeometry x="30" width="140" height="30" as="geometry" />
        </mxCell>
        <mxCell id="C-vyLk0tnHw3VtMMgP7b-13" value="Apartment" style="shape=table;startSize=30;container=1;collapsible=1;childLayout=tableLayout;fixedRows=1;rowLines=0;fontStyle=1;align=center;resizeLast=1;" parent="1" vertex="1">
          <mxGeometry x="310" y="260" width="160" height="310" as="geometry" />
        </mxCell>
        <mxCell id="C-vyLk0tnHw3VtMMgP7b-14" value="" style="shape=partialRectangle;collapsible=0;dropTarget=0;pointerEvents=0;fillColor=none;points=[[0,0.5],[1,0.5]];portConstraint=eastwest;top=0;left=0;right=0;bottom=1;" parent="C-vyLk0tnHw3VtMMgP7b-13" vertex="1">
          <mxGeometry y="30" width="160" height="30" as="geometry" />
        </mxCell>
        <mxCell id="C-vyLk0tnHw3VtMMgP7b-15" value="PK" style="shape=partialRectangle;overflow=hidden;connectable=0;fillColor=none;top=0;left=0;bottom=0;right=0;fontStyle=1;" parent="C-vyLk0tnHw3VtMMgP7b-14" vertex="1">
          <mxGeometry width="30" height="30" as="geometry" />
        </mxCell>
        <mxCell id="C-vyLk0tnHw3VtMMgP7b-16" value="ID" style="shape=partialRectangle;overflow=hidden;connectable=0;fillColor=none;top=0;left=0;bottom=0;right=0;align=left;spacingLeft=6;fontStyle=5;" parent="C-vyLk0tnHw3VtMMgP7b-14" vertex="1">
          <mxGeometry x="30" width="130" height="30" as="geometry" />
        </mxCell>
        <mxCell id="XpnV4tskkDyqHlUHWZ18-157" value="" style="shape=partialRectangle;collapsible=0;dropTarget=0;pointerEvents=0;fillColor=none;points=[[0,0.5],[1,0.5]];portConstraint=eastwest;top=0;left=0;right=0;bottom=0;" vertex="1" parent="C-vyLk0tnHw3VtMMgP7b-13">
          <mxGeometry y="60" width="160" height="30" as="geometry" />
        </mxCell>
        <mxCell id="XpnV4tskkDyqHlUHWZ18-158" value="FK1" style="shape=partialRectangle;overflow=hidden;connectable=0;fillColor=none;top=0;left=0;bottom=0;right=0;" vertex="1" parent="XpnV4tskkDyqHlUHWZ18-157">
          <mxGeometry width="30" height="30" as="geometry" />
        </mxCell>
        <mxCell id="XpnV4tskkDyqHlUHWZ18-159" value="Owner ID" style="shape=partialRectangle;overflow=hidden;connectable=0;fillColor=none;top=0;left=0;bottom=0;right=0;align=left;spacingLeft=6;" vertex="1" parent="XpnV4tskkDyqHlUHWZ18-157">
          <mxGeometry x="30" width="130" height="30" as="geometry" />
        </mxCell>
        <mxCell id="C-vyLk0tnHw3VtMMgP7b-17" value="" style="shape=partialRectangle;collapsible=0;dropTarget=0;pointerEvents=0;fillColor=none;points=[[0,0.5],[1,0.5]];portConstraint=eastwest;top=0;left=0;right=0;bottom=0;" parent="C-vyLk0tnHw3VtMMgP7b-13" vertex="1">
          <mxGeometry y="90" width="160" height="30" as="geometry" />
        </mxCell>
        <mxCell id="C-vyLk0tnHw3VtMMgP7b-18" value="FK2" style="shape=partialRectangle;overflow=hidden;connectable=0;fillColor=none;top=0;left=0;bottom=0;right=0;" parent="C-vyLk0tnHw3VtMMgP7b-17" vertex="1">
          <mxGeometry width="30" height="30" as="geometry" />
        </mxCell>
        <mxCell id="C-vyLk0tnHw3VtMMgP7b-19" value="Type ID" style="shape=partialRectangle;overflow=hidden;connectable=0;fillColor=none;top=0;left=0;bottom=0;right=0;align=left;spacingLeft=6;" parent="C-vyLk0tnHw3VtMMgP7b-17" vertex="1">
          <mxGeometry x="30" width="130" height="30" as="geometry" />
        </mxCell>
        <mxCell id="XpnV4tskkDyqHlUHWZ18-56" value="" style="shape=partialRectangle;collapsible=0;dropTarget=0;pointerEvents=0;fillColor=none;points=[[0,0.5],[1,0.5]];portConstraint=eastwest;top=0;left=0;right=0;bottom=0;" vertex="1" parent="C-vyLk0tnHw3VtMMgP7b-13">
          <mxGeometry y="120" width="160" height="30" as="geometry" />
        </mxCell>
        <mxCell id="XpnV4tskkDyqHlUHWZ18-57" value="" style="shape=partialRectangle;overflow=hidden;connectable=0;fillColor=none;top=0;left=0;bottom=0;right=0;" vertex="1" parent="XpnV4tskkDyqHlUHWZ18-56">
          <mxGeometry width="30" height="30" as="geometry" />
        </mxCell>
        <mxCell id="XpnV4tskkDyqHlUHWZ18-58" value="Rooms" style="shape=partialRectangle;overflow=hidden;connectable=0;fillColor=none;top=0;left=0;bottom=0;right=0;align=left;spacingLeft=6;" vertex="1" parent="XpnV4tskkDyqHlUHWZ18-56">
          <mxGeometry x="30" width="130" height="30" as="geometry" />
        </mxCell>
        <mxCell id="XpnV4tskkDyqHlUHWZ18-59" value="" style="shape=partialRectangle;collapsible=0;dropTarget=0;pointerEvents=0;fillColor=none;points=[[0,0.5],[1,0.5]];portConstraint=eastwest;top=0;left=0;right=0;bottom=0;" vertex="1" parent="C-vyLk0tnHw3VtMMgP7b-13">
          <mxGeometry y="150" width="160" height="30" as="geometry" />
        </mxCell>
        <mxCell id="XpnV4tskkDyqHlUHWZ18-60" value="" style="shape=partialRectangle;overflow=hidden;connectable=0;fillColor=none;top=0;left=0;bottom=0;right=0;" vertex="1" parent="XpnV4tskkDyqHlUHWZ18-59">
          <mxGeometry width="30" height="30" as="geometry" />
        </mxCell>
        <mxCell id="XpnV4tskkDyqHlUHWZ18-61" value="Area" style="shape=partialRectangle;overflow=hidden;connectable=0;fillColor=none;top=0;left=0;bottom=0;right=0;align=left;spacingLeft=6;" vertex="1" parent="XpnV4tskkDyqHlUHWZ18-59">
          <mxGeometry x="30" width="130" height="30" as="geometry" />
        </mxCell>
        <mxCell id="XpnV4tskkDyqHlUHWZ18-93" value="" style="shape=partialRectangle;collapsible=0;dropTarget=0;pointerEvents=0;fillColor=none;points=[[0,0.5],[1,0.5]];portConstraint=eastwest;top=0;left=0;right=0;bottom=0;" vertex="1" parent="C-vyLk0tnHw3VtMMgP7b-13">
          <mxGeometry y="180" width="160" height="30" as="geometry" />
        </mxCell>
        <mxCell id="XpnV4tskkDyqHlUHWZ18-94" value="" style="shape=partialRectangle;overflow=hidden;connectable=0;fillColor=none;top=0;left=0;bottom=0;right=0;" vertex="1" parent="XpnV4tskkDyqHlUHWZ18-93">
          <mxGeometry width="30" height="30" as="geometry" />
        </mxCell>
        <mxCell id="XpnV4tskkDyqHlUHWZ18-95" value="Floor" style="shape=partialRectangle;overflow=hidden;connectable=0;fillColor=none;top=0;left=0;bottom=0;right=0;align=left;spacingLeft=6;" vertex="1" parent="XpnV4tskkDyqHlUHWZ18-93">
          <mxGeometry x="30" width="130" height="30" as="geometry" />
        </mxCell>
        <mxCell id="XpnV4tskkDyqHlUHWZ18-96" value="" style="shape=partialRectangle;collapsible=0;dropTarget=0;pointerEvents=0;fillColor=none;points=[[0,0.5],[1,0.5]];portConstraint=eastwest;top=0;left=0;right=0;bottom=0;" vertex="1" parent="C-vyLk0tnHw3VtMMgP7b-13">
          <mxGeometry y="210" width="160" height="30" as="geometry" />
        </mxCell>
        <mxCell id="XpnV4tskkDyqHlUHWZ18-97" value="" style="shape=partialRectangle;overflow=hidden;connectable=0;fillColor=none;top=0;left=0;bottom=0;right=0;" vertex="1" parent="XpnV4tskkDyqHlUHWZ18-96">
          <mxGeometry width="30" height="30" as="geometry" />
        </mxCell>
        <mxCell id="XpnV4tskkDyqHlUHWZ18-98" value="Address" style="shape=partialRectangle;overflow=hidden;connectable=0;fillColor=none;top=0;left=0;bottom=0;right=0;align=left;spacingLeft=6;" vertex="1" parent="XpnV4tskkDyqHlUHWZ18-96">
          <mxGeometry x="30" width="130" height="30" as="geometry" />
        </mxCell>
        <mxCell id="XpnV4tskkDyqHlUHWZ18-102" value="" style="shape=partialRectangle;collapsible=0;dropTarget=0;pointerEvents=0;fillColor=none;points=[[0,0.5],[1,0.5]];portConstraint=eastwest;top=0;left=0;right=0;bottom=0;" vertex="1" parent="C-vyLk0tnHw3VtMMgP7b-13">
          <mxGeometry y="240" width="160" height="30" as="geometry" />
        </mxCell>
        <mxCell id="XpnV4tskkDyqHlUHWZ18-103" value="" style="shape=partialRectangle;overflow=hidden;connectable=0;fillColor=none;top=0;left=0;bottom=0;right=0;" vertex="1" parent="XpnV4tskkDyqHlUHWZ18-102">
          <mxGeometry width="30" height="30" as="geometry" />
        </mxCell>
        <mxCell id="XpnV4tskkDyqHlUHWZ18-104" value="Beds" style="shape=partialRectangle;overflow=hidden;connectable=0;fillColor=none;top=0;left=0;bottom=0;right=0;align=left;spacingLeft=6;" vertex="1" parent="XpnV4tskkDyqHlUHWZ18-102">
          <mxGeometry x="30" width="130" height="30" as="geometry" />
        </mxCell>
        <mxCell id="XpnV4tskkDyqHlUHWZ18-163" value="" style="shape=partialRectangle;collapsible=0;dropTarget=0;pointerEvents=0;fillColor=none;points=[[0,0.5],[1,0.5]];portConstraint=eastwest;top=0;left=0;right=0;bottom=0;" vertex="1" parent="C-vyLk0tnHw3VtMMgP7b-13">
          <mxGeometry y="270" width="160" height="30" as="geometry" />
        </mxCell>
        <mxCell id="XpnV4tskkDyqHlUHWZ18-164" value="" style="shape=partialRectangle;overflow=hidden;connectable=0;fillColor=none;top=0;left=0;bottom=0;right=0;" vertex="1" parent="XpnV4tskkDyqHlUHWZ18-163">
          <mxGeometry width="30" height="30" as="geometry" />
        </mxCell>
        <mxCell id="XpnV4tskkDyqHlUHWZ18-165" value="Description" style="shape=partialRectangle;overflow=hidden;connectable=0;fillColor=none;top=0;left=0;bottom=0;right=0;align=left;spacingLeft=6;" vertex="1" parent="XpnV4tskkDyqHlUHWZ18-163">
          <mxGeometry x="30" width="130" height="30" as="geometry" />
        </mxCell>
        <mxCell id="C-vyLk0tnHw3VtMMgP7b-23" value="Owner" style="shape=table;startSize=30;container=1;collapsible=1;childLayout=tableLayout;fixedRows=1;rowLines=0;fontStyle=1;align=center;resizeLast=1;" parent="1" vertex="1">
          <mxGeometry x="80" y="170" width="160" height="180" as="geometry" />
        </mxCell>
        <mxCell id="C-vyLk0tnHw3VtMMgP7b-24" value="" style="shape=partialRectangle;collapsible=0;dropTarget=0;pointerEvents=0;fillColor=none;points=[[0,0.5],[1,0.5]];portConstraint=eastwest;top=0;left=0;right=0;bottom=1;" parent="C-vyLk0tnHw3VtMMgP7b-23" vertex="1">
          <mxGeometry y="30" width="160" height="30" as="geometry" />
        </mxCell>
        <mxCell id="C-vyLk0tnHw3VtMMgP7b-25" value="PK" style="shape=partialRectangle;overflow=hidden;connectable=0;fillColor=none;top=0;left=0;bottom=0;right=0;fontStyle=1;" parent="C-vyLk0tnHw3VtMMgP7b-24" vertex="1">
          <mxGeometry width="30" height="30" as="geometry" />
        </mxCell>
        <mxCell id="C-vyLk0tnHw3VtMMgP7b-26" value="ID" style="shape=partialRectangle;overflow=hidden;connectable=0;fillColor=none;top=0;left=0;bottom=0;right=0;align=left;spacingLeft=6;fontStyle=5;" parent="C-vyLk0tnHw3VtMMgP7b-24" vertex="1">
          <mxGeometry x="30" width="130" height="30" as="geometry" />
        </mxCell>
        <mxCell id="C-vyLk0tnHw3VtMMgP7b-27" value="" style="shape=partialRectangle;collapsible=0;dropTarget=0;pointerEvents=0;fillColor=none;points=[[0,0.5],[1,0.5]];portConstraint=eastwest;top=0;left=0;right=0;bottom=0;" parent="C-vyLk0tnHw3VtMMgP7b-23" vertex="1">
          <mxGeometry y="60" width="160" height="40" as="geometry" />
        </mxCell>
        <mxCell id="C-vyLk0tnHw3VtMMgP7b-28" value="" style="shape=partialRectangle;overflow=hidden;connectable=0;fillColor=none;top=0;left=0;bottom=0;right=0;" parent="C-vyLk0tnHw3VtMMgP7b-27" vertex="1">
          <mxGeometry width="30" height="40" as="geometry" />
        </mxCell>
        <mxCell id="C-vyLk0tnHw3VtMMgP7b-29" value="Name Surname" style="shape=partialRectangle;overflow=hidden;connectable=0;fillColor=none;top=0;left=0;bottom=0;right=0;align=left;spacingLeft=6;" parent="C-vyLk0tnHw3VtMMgP7b-27" vertex="1">
          <mxGeometry x="30" width="130" height="40" as="geometry" />
        </mxCell>
        <mxCell id="XpnV4tskkDyqHlUHWZ18-14" value="" style="shape=partialRectangle;collapsible=0;dropTarget=0;pointerEvents=0;fillColor=none;points=[[0,0.5],[1,0.5]];portConstraint=eastwest;top=0;left=0;right=0;bottom=0;" vertex="1" parent="C-vyLk0tnHw3VtMMgP7b-23">
          <mxGeometry y="100" width="160" height="40" as="geometry" />
        </mxCell>
        <mxCell id="XpnV4tskkDyqHlUHWZ18-15" value="" style="shape=partialRectangle;overflow=hidden;connectable=0;fillColor=none;top=0;left=0;bottom=0;right=0;" vertex="1" parent="XpnV4tskkDyqHlUHWZ18-14">
          <mxGeometry width="30" height="40" as="geometry" />
        </mxCell>
        <mxCell id="XpnV4tskkDyqHlUHWZ18-16" value="Phone number" style="shape=partialRectangle;overflow=hidden;connectable=0;fillColor=none;top=0;left=0;bottom=0;right=0;align=left;spacingLeft=6;" vertex="1" parent="XpnV4tskkDyqHlUHWZ18-14">
          <mxGeometry x="30" width="130" height="40" as="geometry" />
        </mxCell>
        <mxCell id="XpnV4tskkDyqHlUHWZ18-30" value="" style="shape=partialRectangle;collapsible=0;dropTarget=0;pointerEvents=0;fillColor=none;points=[[0,0.5],[1,0.5]];portConstraint=eastwest;top=0;left=0;right=0;bottom=0;" vertex="1" parent="C-vyLk0tnHw3VtMMgP7b-23">
          <mxGeometry y="140" width="160" height="40" as="geometry" />
        </mxCell>
        <mxCell id="XpnV4tskkDyqHlUHWZ18-31" value="" style="shape=partialRectangle;overflow=hidden;connectable=0;fillColor=none;top=0;left=0;bottom=0;right=0;" vertex="1" parent="XpnV4tskkDyqHlUHWZ18-30">
          <mxGeometry width="30" height="40" as="geometry" />
        </mxCell>
        <mxCell id="XpnV4tskkDyqHlUHWZ18-32" value="Email" style="shape=partialRectangle;overflow=hidden;connectable=0;fillColor=none;top=0;left=0;bottom=0;right=0;align=left;spacingLeft=6;" vertex="1" parent="XpnV4tskkDyqHlUHWZ18-30">
          <mxGeometry x="30" width="130" height="40" as="geometry" />
        </mxCell>
        <mxCell id="XpnV4tskkDyqHlUHWZ18-49" value="Type" style="shape=table;startSize=30;container=1;collapsible=1;childLayout=tableLayout;fixedRows=1;rowLines=0;fontStyle=1;align=center;resizeLast=1;" vertex="1" parent="1">
          <mxGeometry x="80" y="400" width="160" height="90" as="geometry" />
        </mxCell>
        <mxCell id="XpnV4tskkDyqHlUHWZ18-50" value="" style="shape=partialRectangle;collapsible=0;dropTarget=0;pointerEvents=0;fillColor=none;points=[[0,0.5],[1,0.5]];portConstraint=eastwest;top=0;left=0;right=0;bottom=1;" vertex="1" parent="XpnV4tskkDyqHlUHWZ18-49">
          <mxGeometry y="30" width="160" height="30" as="geometry" />
        </mxCell>
        <mxCell id="XpnV4tskkDyqHlUHWZ18-51" value="PK" style="shape=partialRectangle;overflow=hidden;connectable=0;fillColor=none;top=0;left=0;bottom=0;right=0;fontStyle=1;" vertex="1" parent="XpnV4tskkDyqHlUHWZ18-50">
          <mxGeometry width="30" height="30" as="geometry" />
        </mxCell>
        <mxCell id="XpnV4tskkDyqHlUHWZ18-52" value="ID" style="shape=partialRectangle;overflow=hidden;connectable=0;fillColor=none;top=0;left=0;bottom=0;right=0;align=left;spacingLeft=6;fontStyle=5;" vertex="1" parent="XpnV4tskkDyqHlUHWZ18-50">
          <mxGeometry x="30" width="130" height="30" as="geometry" />
        </mxCell>
        <mxCell id="XpnV4tskkDyqHlUHWZ18-53" value="" style="shape=partialRectangle;collapsible=0;dropTarget=0;pointerEvents=0;fillColor=none;points=[[0,0.5],[1,0.5]];portConstraint=eastwest;top=0;left=0;right=0;bottom=0;" vertex="1" parent="XpnV4tskkDyqHlUHWZ18-49">
          <mxGeometry y="60" width="160" height="30" as="geometry" />
        </mxCell>
        <mxCell id="XpnV4tskkDyqHlUHWZ18-54" value="" style="shape=partialRectangle;overflow=hidden;connectable=0;fillColor=none;top=0;left=0;bottom=0;right=0;" vertex="1" parent="XpnV4tskkDyqHlUHWZ18-53">
          <mxGeometry width="30" height="30" as="geometry" />
        </mxCell>
        <mxCell id="XpnV4tskkDyqHlUHWZ18-55" value="Type" style="shape=partialRectangle;overflow=hidden;connectable=0;fillColor=none;top=0;left=0;bottom=0;right=0;align=left;spacingLeft=6;" vertex="1" parent="XpnV4tskkDyqHlUHWZ18-53">
          <mxGeometry x="30" width="130" height="30" as="geometry" />
        </mxCell>
        <mxCell id="XpnV4tskkDyqHlUHWZ18-101" value="" style="edgeStyle=entityRelationEdgeStyle;endArrow=ERzeroToMany;startArrow=ERone;endFill=1;startFill=0;exitX=1;exitY=0.5;exitDx=0;exitDy=0;entryX=0;entryY=0.5;entryDx=0;entryDy=0;" edge="1" parent="1" source="XpnV4tskkDyqHlUHWZ18-50" target="C-vyLk0tnHw3VtMMgP7b-17">
          <mxGeometry width="100" height="100" relative="1" as="geometry">
            <mxPoint x="160" y="710" as="sourcePoint" />
            <mxPoint x="210" y="620" as="targetPoint" />
          </mxGeometry>
        </mxCell>
        <mxCell id="XpnV4tskkDyqHlUHWZ18-106" value="User" style="shape=table;startSize=30;container=1;collapsible=1;childLayout=tableLayout;fixedRows=1;rowLines=0;fontStyle=1;align=center;resizeLast=1;" vertex="1" parent="1">
          <mxGeometry x="500" y="-50" width="160" height="150" as="geometry" />
        </mxCell>
        <mxCell id="XpnV4tskkDyqHlUHWZ18-107" value="" style="shape=partialRectangle;collapsible=0;dropTarget=0;pointerEvents=0;fillColor=none;points=[[0,0.5],[1,0.5]];portConstraint=eastwest;top=0;left=0;right=0;bottom=1;" vertex="1" parent="XpnV4tskkDyqHlUHWZ18-106">
          <mxGeometry y="30" width="160" height="30" as="geometry" />
        </mxCell>
        <mxCell id="XpnV4tskkDyqHlUHWZ18-108" value="PK" style="shape=partialRectangle;overflow=hidden;connectable=0;fillColor=none;top=0;left=0;bottom=0;right=0;fontStyle=1;" vertex="1" parent="XpnV4tskkDyqHlUHWZ18-107">
          <mxGeometry width="30" height="30" as="geometry" />
        </mxCell>
        <mxCell id="XpnV4tskkDyqHlUHWZ18-109" value="ID" style="shape=partialRectangle;overflow=hidden;connectable=0;fillColor=none;top=0;left=0;bottom=0;right=0;align=left;spacingLeft=6;fontStyle=5;" vertex="1" parent="XpnV4tskkDyqHlUHWZ18-107">
          <mxGeometry x="30" width="130" height="30" as="geometry" />
        </mxCell>
        <mxCell id="XpnV4tskkDyqHlUHWZ18-110" value="" style="shape=partialRectangle;collapsible=0;dropTarget=0;pointerEvents=0;fillColor=none;points=[[0,0.5],[1,0.5]];portConstraint=eastwest;top=0;left=0;right=0;bottom=0;" vertex="1" parent="XpnV4tskkDyqHlUHWZ18-106">
          <mxGeometry y="60" width="160" height="30" as="geometry" />
        </mxCell>
        <mxCell id="XpnV4tskkDyqHlUHWZ18-111" value="" style="shape=partialRectangle;overflow=hidden;connectable=0;fillColor=none;top=0;left=0;bottom=0;right=0;" vertex="1" parent="XpnV4tskkDyqHlUHWZ18-110">
          <mxGeometry width="30" height="30" as="geometry" />
        </mxCell>
        <mxCell id="XpnV4tskkDyqHlUHWZ18-112" value="Name Surname" style="shape=partialRectangle;overflow=hidden;connectable=0;fillColor=none;top=0;left=0;bottom=0;right=0;align=left;spacingLeft=6;" vertex="1" parent="XpnV4tskkDyqHlUHWZ18-110">
          <mxGeometry x="30" width="130" height="30" as="geometry" />
        </mxCell>
        <mxCell id="XpnV4tskkDyqHlUHWZ18-120" value="" style="shape=partialRectangle;collapsible=0;dropTarget=0;pointerEvents=0;fillColor=none;points=[[0,0.5],[1,0.5]];portConstraint=eastwest;top=0;left=0;right=0;bottom=0;" vertex="1" parent="XpnV4tskkDyqHlUHWZ18-106">
          <mxGeometry y="90" width="160" height="30" as="geometry" />
        </mxCell>
        <mxCell id="XpnV4tskkDyqHlUHWZ18-121" value="" style="shape=partialRectangle;overflow=hidden;connectable=0;fillColor=none;top=0;left=0;bottom=0;right=0;" vertex="1" parent="XpnV4tskkDyqHlUHWZ18-120">
          <mxGeometry width="30" height="30" as="geometry" />
        </mxCell>
        <mxCell id="XpnV4tskkDyqHlUHWZ18-122" value="Phone number" style="shape=partialRectangle;overflow=hidden;connectable=0;fillColor=none;top=0;left=0;bottom=0;right=0;align=left;spacingLeft=6;" vertex="1" parent="XpnV4tskkDyqHlUHWZ18-120">
          <mxGeometry x="30" width="130" height="30" as="geometry" />
        </mxCell>
        <mxCell id="XpnV4tskkDyqHlUHWZ18-133" value="" style="shape=partialRectangle;collapsible=0;dropTarget=0;pointerEvents=0;fillColor=none;points=[[0,0.5],[1,0.5]];portConstraint=eastwest;top=0;left=0;right=0;bottom=0;" vertex="1" parent="XpnV4tskkDyqHlUHWZ18-106">
          <mxGeometry y="120" width="160" height="30" as="geometry" />
        </mxCell>
        <mxCell id="XpnV4tskkDyqHlUHWZ18-134" value="" style="shape=partialRectangle;overflow=hidden;connectable=0;fillColor=none;top=0;left=0;bottom=0;right=0;" vertex="1" parent="XpnV4tskkDyqHlUHWZ18-133">
          <mxGeometry width="30" height="30" as="geometry" />
        </mxCell>
        <mxCell id="XpnV4tskkDyqHlUHWZ18-135" value="Email" style="shape=partialRectangle;overflow=hidden;connectable=0;fillColor=none;top=0;left=0;bottom=0;right=0;align=left;spacingLeft=6;" vertex="1" parent="XpnV4tskkDyqHlUHWZ18-133">
          <mxGeometry x="30" width="130" height="30" as="geometry" />
        </mxCell>
        <mxCell id="XpnV4tskkDyqHlUHWZ18-136" value="Contract" style="shape=table;startSize=30;container=1;collapsible=1;childLayout=tableLayout;fixedRows=1;rowLines=0;fontStyle=1;align=center;resizeLast=1;" vertex="1" parent="1">
          <mxGeometry x="250" y="-80" width="160" height="230" as="geometry" />
        </mxCell>
        <mxCell id="XpnV4tskkDyqHlUHWZ18-137" value="" style="shape=partialRectangle;collapsible=0;dropTarget=0;pointerEvents=0;fillColor=none;points=[[0,0.5],[1,0.5]];portConstraint=eastwest;top=0;left=0;right=0;bottom=1;" vertex="1" parent="XpnV4tskkDyqHlUHWZ18-136">
          <mxGeometry y="30" width="160" height="30" as="geometry" />
        </mxCell>
        <mxCell id="XpnV4tskkDyqHlUHWZ18-138" value="PK" style="shape=partialRectangle;overflow=hidden;connectable=0;fillColor=none;top=0;left=0;bottom=0;right=0;fontStyle=1;" vertex="1" parent="XpnV4tskkDyqHlUHWZ18-137">
          <mxGeometry width="30" height="30" as="geometry" />
        </mxCell>
        <mxCell id="XpnV4tskkDyqHlUHWZ18-139" value="ID" style="shape=partialRectangle;overflow=hidden;connectable=0;fillColor=none;top=0;left=0;bottom=0;right=0;align=left;spacingLeft=6;fontStyle=5;" vertex="1" parent="XpnV4tskkDyqHlUHWZ18-137">
          <mxGeometry x="30" width="130" height="30" as="geometry" />
        </mxCell>
        <mxCell id="XpnV4tskkDyqHlUHWZ18-140" value="" style="shape=partialRectangle;collapsible=0;dropTarget=0;pointerEvents=0;fillColor=none;points=[[0,0.5],[1,0.5]];portConstraint=eastwest;top=0;left=0;right=0;bottom=0;" vertex="1" parent="XpnV4tskkDyqHlUHWZ18-136">
          <mxGeometry y="60" width="160" height="30" as="geometry" />
        </mxCell>
        <mxCell id="XpnV4tskkDyqHlUHWZ18-141" value="FK1" style="shape=partialRectangle;overflow=hidden;connectable=0;fillColor=none;top=0;left=0;bottom=0;right=0;" vertex="1" parent="XpnV4tskkDyqHlUHWZ18-140">
          <mxGeometry width="30" height="30" as="geometry" />
        </mxCell>
        <mxCell id="XpnV4tskkDyqHlUHWZ18-142" value="User ID" style="shape=partialRectangle;overflow=hidden;connectable=0;fillColor=none;top=0;left=0;bottom=0;right=0;align=left;spacingLeft=6;" vertex="1" parent="XpnV4tskkDyqHlUHWZ18-140">
          <mxGeometry x="30" width="130" height="30" as="geometry" />
        </mxCell>
        <mxCell id="XpnV4tskkDyqHlUHWZ18-143" value="" style="shape=partialRectangle;collapsible=0;dropTarget=0;pointerEvents=0;fillColor=none;points=[[0,0.5],[1,0.5]];portConstraint=eastwest;top=0;left=0;right=0;bottom=0;" vertex="1" parent="XpnV4tskkDyqHlUHWZ18-136">
          <mxGeometry y="90" width="160" height="35" as="geometry" />
        </mxCell>
        <mxCell id="XpnV4tskkDyqHlUHWZ18-144" value="FK2" style="shape=partialRectangle;overflow=hidden;connectable=0;fillColor=none;top=0;left=0;bottom=0;right=0;" vertex="1" parent="XpnV4tskkDyqHlUHWZ18-143">
          <mxGeometry width="30" height="35" as="geometry" />
        </mxCell>
        <mxCell id="XpnV4tskkDyqHlUHWZ18-145" value="Owner ID" style="shape=partialRectangle;overflow=hidden;connectable=0;fillColor=none;top=0;left=0;bottom=0;right=0;align=left;spacingLeft=6;" vertex="1" parent="XpnV4tskkDyqHlUHWZ18-143">
          <mxGeometry x="30" width="130" height="35" as="geometry" />
        </mxCell>
        <mxCell id="XpnV4tskkDyqHlUHWZ18-148" value="" style="shape=partialRectangle;collapsible=0;dropTarget=0;pointerEvents=0;fillColor=none;points=[[0,0.5],[1,0.5]];portConstraint=eastwest;top=0;left=0;right=0;bottom=0;" vertex="1" parent="XpnV4tskkDyqHlUHWZ18-136">
          <mxGeometry y="125" width="160" height="35" as="geometry" />
        </mxCell>
        <mxCell id="XpnV4tskkDyqHlUHWZ18-149" value="FK3" style="shape=partialRectangle;overflow=hidden;connectable=0;fillColor=none;top=0;left=0;bottom=0;right=0;" vertex="1" parent="XpnV4tskkDyqHlUHWZ18-148">
          <mxGeometry width="30" height="35" as="geometry" />
        </mxCell>
        <mxCell id="XpnV4tskkDyqHlUHWZ18-150" value="Post ID" style="shape=partialRectangle;overflow=hidden;connectable=0;fillColor=none;top=0;left=0;bottom=0;right=0;align=left;spacingLeft=6;" vertex="1" parent="XpnV4tskkDyqHlUHWZ18-148">
          <mxGeometry x="30" width="130" height="35" as="geometry" />
        </mxCell>
        <mxCell id="XpnV4tskkDyqHlUHWZ18-193" value="" style="shape=partialRectangle;collapsible=0;dropTarget=0;pointerEvents=0;fillColor=none;points=[[0,0.5],[1,0.5]];portConstraint=eastwest;top=0;left=0;right=0;bottom=0;" vertex="1" parent="XpnV4tskkDyqHlUHWZ18-136">
          <mxGeometry y="160" width="160" height="35" as="geometry" />
        </mxCell>
        <mxCell id="XpnV4tskkDyqHlUHWZ18-194" value="" style="shape=partialRectangle;overflow=hidden;connectable=0;fillColor=none;top=0;left=0;bottom=0;right=0;" vertex="1" parent="XpnV4tskkDyqHlUHWZ18-193">
          <mxGeometry width="30" height="35" as="geometry" />
        </mxCell>
        <mxCell id="XpnV4tskkDyqHlUHWZ18-195" value="From" style="shape=partialRectangle;overflow=hidden;connectable=0;fillColor=none;top=0;left=0;bottom=0;right=0;align=left;spacingLeft=6;" vertex="1" parent="XpnV4tskkDyqHlUHWZ18-193">
          <mxGeometry x="30" width="130" height="35" as="geometry" />
        </mxCell>
        <mxCell id="XpnV4tskkDyqHlUHWZ18-196" value="" style="shape=partialRectangle;collapsible=0;dropTarget=0;pointerEvents=0;fillColor=none;points=[[0,0.5],[1,0.5]];portConstraint=eastwest;top=0;left=0;right=0;bottom=0;" vertex="1" parent="XpnV4tskkDyqHlUHWZ18-136">
          <mxGeometry y="195" width="160" height="35" as="geometry" />
        </mxCell>
        <mxCell id="XpnV4tskkDyqHlUHWZ18-197" value="" style="shape=partialRectangle;overflow=hidden;connectable=0;fillColor=none;top=0;left=0;bottom=0;right=0;" vertex="1" parent="XpnV4tskkDyqHlUHWZ18-196">
          <mxGeometry width="30" height="35" as="geometry" />
        </mxCell>
        <mxCell id="XpnV4tskkDyqHlUHWZ18-198" value="To" style="shape=partialRectangle;overflow=hidden;connectable=0;fillColor=none;top=0;left=0;bottom=0;right=0;align=left;spacingLeft=6;" vertex="1" parent="XpnV4tskkDyqHlUHWZ18-196">
          <mxGeometry x="30" width="130" height="35" as="geometry" />
        </mxCell>
        <mxCell id="XpnV4tskkDyqHlUHWZ18-146" value="" style="edgeStyle=entityRelationEdgeStyle;endArrow=ERzeroToMany;startArrow=ERone;endFill=1;startFill=0;exitX=0;exitY=0.5;exitDx=0;exitDy=0;entryX=1;entryY=0.5;entryDx=0;entryDy=0;" edge="1" parent="1" source="XpnV4tskkDyqHlUHWZ18-107" target="XpnV4tskkDyqHlUHWZ18-140">
          <mxGeometry width="100" height="100" relative="1" as="geometry">
            <mxPoint x="260" y="225" as="sourcePoint" />
            <mxPoint x="560" y="255" as="targetPoint" />
          </mxGeometry>
        </mxCell>
        <mxCell id="XpnV4tskkDyqHlUHWZ18-147" value="" style="edgeStyle=elbowEdgeStyle;endArrow=ERzeroToMany;startArrow=ERone;endFill=1;startFill=0;exitX=0;exitY=0.5;exitDx=0;exitDy=0;entryX=0;entryY=0.5;entryDx=0;entryDy=0;" edge="1" parent="1" source="C-vyLk0tnHw3VtMMgP7b-24" target="XpnV4tskkDyqHlUHWZ18-143">
          <mxGeometry width="100" height="100" relative="1" as="geometry">
            <mxPoint x="80" y="205" as="sourcePoint" />
            <mxPoint x="200" y="90" as="targetPoint" />
            <Array as="points">
              <mxPoint x="60" y="130" />
            </Array>
          </mxGeometry>
        </mxCell>
        <mxCell id="XpnV4tskkDyqHlUHWZ18-151" value="" style="edgeStyle=entityRelationEdgeStyle;endArrow=ERzeroToMany;startArrow=ERone;endFill=1;startFill=0;exitX=1;exitY=0.5;exitDx=0;exitDy=0;entryX=0;entryY=0.5;entryDx=0;entryDy=0;" edge="1" parent="1" source="XpnV4tskkDyqHlUHWZ18-148" target="C-vyLk0tnHw3VtMMgP7b-3">
          <mxGeometry width="100" height="100" relative="1" as="geometry">
            <mxPoint x="460" y="190" as="sourcePoint" />
            <mxPoint x="410" y="232.5" as="targetPoint" />
          </mxGeometry>
        </mxCell>
        <mxCell id="XpnV4tskkDyqHlUHWZ18-153" value="" style="endArrow=ERzeroToMany;startArrow=ERone;endFill=1;startFill=0;entryX=0;entryY=0.5;entryDx=0;entryDy=0;exitX=1;exitY=0.5;exitDx=0;exitDy=0;edgeStyle=elbowEdgeStyle;" edge="1" parent="1" source="C-vyLk0tnHw3VtMMgP7b-24" target="XpnV4tskkDyqHlUHWZ18-157">
          <mxGeometry width="100" height="100" relative="1" as="geometry">
            <mxPoint x="260" y="240" as="sourcePoint" />
            <mxPoint x="260" y="340" as="targetPoint" />
          </mxGeometry>
        </mxCell>
        <mxCell id="XpnV4tskkDyqHlUHWZ18-161" value="&lt;ol style=&quot;font-size: 12px&quot;&gt;&lt;li style=&quot;font-size: 12px&quot;&gt;&lt;span style=&quot;font-weight: normal&quot;&gt;Клієнт може переглянути оголошення&lt;/span&gt;&lt;/li&gt;&lt;li style=&quot;font-size: 12px&quot;&gt;&lt;span style=&quot;font-weight: normal&quot;&gt;Клієнт може переглянути вільні дати&lt;/span&gt;&lt;/li&gt;&lt;li style=&quot;font-size: 12px&quot;&gt;&lt;span style=&quot;font-weight: normal&quot;&gt;Клієнт може забронювати на конкретну дату&lt;/span&gt;&lt;/li&gt;&lt;li&gt;&lt;span style=&quot;font-weight: normal&quot;&gt;Клієнт може переглянути відгуки попередніх користувачів&lt;/span&gt;&lt;/li&gt;&lt;li style=&quot;font-size: 12px&quot;&gt;&lt;span style=&quot;font-weight: normal&quot;&gt;Клієнт може залишити відгук про житло&lt;/span&gt;&lt;/li&gt;&lt;li style=&quot;font-size: 12px&quot;&gt;&lt;span style=&quot;font-weight: normal&quot;&gt;Клієнт може додати приміщення до списку своїх приміщень&lt;/span&gt;&lt;/li&gt;&lt;li style=&quot;font-size: 12px&quot;&gt;&lt;span style=&quot;font-weight: normal&quot;&gt;Клієнт може створити оголошення&lt;/span&gt;&lt;/li&gt;&lt;li style=&quot;font-size: 12px&quot;&gt;&lt;span style=&quot;font-weight: normal&quot;&gt;Клієнт може переглянути рейтинг власника&lt;/span&gt;&lt;/li&gt;&lt;/ol&gt;" style="text;html=1;align=left;verticalAlign=middle;resizable=0;points=[];autosize=1;strokeColor=none;fontStyle=1;horizontal=1;fontSize=12;" vertex="1" parent="1">
          <mxGeometry x="850" y="20" width="390" height="140" as="geometry" />
        </mxCell>
        <mxCell id="XpnV4tskkDyqHlUHWZ18-162" value="User Stories" style="text;strokeColor=none;fillColor=none;html=1;fontSize=24;fontStyle=1;verticalAlign=middle;align=center;" vertex="1" parent="1">
          <mxGeometry x="850" y="-20" width="160" height="40" as="geometry" />
        </mxCell>
        <mxCell id="XpnV4tskkDyqHlUHWZ18-169" value="Review" style="shape=table;startSize=30;container=1;collapsible=1;childLayout=tableLayout;fixedRows=1;rowLines=0;fontStyle=1;align=center;resizeLast=1;" vertex="1" parent="1">
          <mxGeometry x="570" y="400" width="160" height="150" as="geometry" />
        </mxCell>
        <mxCell id="XpnV4tskkDyqHlUHWZ18-170" value="" style="shape=partialRectangle;collapsible=0;dropTarget=0;pointerEvents=0;fillColor=none;points=[[0,0.5],[1,0.5]];portConstraint=eastwest;top=0;left=0;right=0;bottom=1;" vertex="1" parent="XpnV4tskkDyqHlUHWZ18-169">
          <mxGeometry y="30" width="160" height="30" as="geometry" />
        </mxCell>
        <mxCell id="XpnV4tskkDyqHlUHWZ18-171" value="PK" style="shape=partialRectangle;overflow=hidden;connectable=0;fillColor=none;top=0;left=0;bottom=0;right=0;fontStyle=1;" vertex="1" parent="XpnV4tskkDyqHlUHWZ18-170">
          <mxGeometry width="30" height="30" as="geometry" />
        </mxCell>
        <mxCell id="XpnV4tskkDyqHlUHWZ18-172" value="ID" style="shape=partialRectangle;overflow=hidden;connectable=0;fillColor=none;top=0;left=0;bottom=0;right=0;align=left;spacingLeft=6;fontStyle=5;" vertex="1" parent="XpnV4tskkDyqHlUHWZ18-170">
          <mxGeometry x="30" width="130" height="30" as="geometry" />
        </mxCell>
        <mxCell id="XpnV4tskkDyqHlUHWZ18-173" value="" style="shape=partialRectangle;collapsible=0;dropTarget=0;pointerEvents=0;fillColor=none;points=[[0,0.5],[1,0.5]];portConstraint=eastwest;top=0;left=0;right=0;bottom=0;" vertex="1" parent="XpnV4tskkDyqHlUHWZ18-169">
          <mxGeometry y="60" width="160" height="30" as="geometry" />
        </mxCell>
        <mxCell id="XpnV4tskkDyqHlUHWZ18-174" value="FK1" style="shape=partialRectangle;overflow=hidden;connectable=0;fillColor=none;top=0;left=0;bottom=0;right=0;" vertex="1" parent="XpnV4tskkDyqHlUHWZ18-173">
          <mxGeometry width="30" height="30" as="geometry" />
        </mxCell>
        <mxCell id="XpnV4tskkDyqHlUHWZ18-175" value="Apartment ID" style="shape=partialRectangle;overflow=hidden;connectable=0;fillColor=none;top=0;left=0;bottom=0;right=0;align=left;spacingLeft=6;" vertex="1" parent="XpnV4tskkDyqHlUHWZ18-173">
          <mxGeometry x="30" width="130" height="30" as="geometry" />
        </mxCell>
        <mxCell id="XpnV4tskkDyqHlUHWZ18-184" value="" style="shape=partialRectangle;collapsible=0;dropTarget=0;pointerEvents=0;fillColor=none;points=[[0,0.5],[1,0.5]];portConstraint=eastwest;top=0;left=0;right=0;bottom=0;" vertex="1" parent="XpnV4tskkDyqHlUHWZ18-169">
          <mxGeometry y="90" width="160" height="30" as="geometry" />
        </mxCell>
        <mxCell id="XpnV4tskkDyqHlUHWZ18-185" value="FK2" style="shape=partialRectangle;overflow=hidden;connectable=0;fillColor=none;top=0;left=0;bottom=0;right=0;" vertex="1" parent="XpnV4tskkDyqHlUHWZ18-184">
          <mxGeometry width="30" height="30" as="geometry" />
        </mxCell>
        <mxCell id="XpnV4tskkDyqHlUHWZ18-186" value="User ID" style="shape=partialRectangle;overflow=hidden;connectable=0;fillColor=none;top=0;left=0;bottom=0;right=0;align=left;spacingLeft=6;" vertex="1" parent="XpnV4tskkDyqHlUHWZ18-184">
          <mxGeometry x="30" width="130" height="30" as="geometry" />
        </mxCell>
        <mxCell id="XpnV4tskkDyqHlUHWZ18-189" value="" style="shape=partialRectangle;collapsible=0;dropTarget=0;pointerEvents=0;fillColor=none;points=[[0,0.5],[1,0.5]];portConstraint=eastwest;top=0;left=0;right=0;bottom=0;" vertex="1" parent="XpnV4tskkDyqHlUHWZ18-169">
          <mxGeometry y="120" width="160" height="30" as="geometry" />
        </mxCell>
        <mxCell id="XpnV4tskkDyqHlUHWZ18-190" value="" style="shape=partialRectangle;overflow=hidden;connectable=0;fillColor=none;top=0;left=0;bottom=0;right=0;" vertex="1" parent="XpnV4tskkDyqHlUHWZ18-189">
          <mxGeometry width="30" height="30" as="geometry" />
        </mxCell>
        <mxCell id="XpnV4tskkDyqHlUHWZ18-191" value="Text" style="shape=partialRectangle;overflow=hidden;connectable=0;fillColor=none;top=0;left=0;bottom=0;right=0;align=left;spacingLeft=6;" vertex="1" parent="XpnV4tskkDyqHlUHWZ18-189">
          <mxGeometry x="30" width="130" height="30" as="geometry" />
        </mxCell>
        <mxCell id="XpnV4tskkDyqHlUHWZ18-176" value="" style="edgeStyle=entityRelationEdgeStyle;endArrow=ERzeroToMany;startArrow=ERone;endFill=1;startFill=0;exitX=1;exitY=0.5;exitDx=0;exitDy=0;entryX=0;entryY=0.5;entryDx=0;entryDy=0;" edge="1" parent="1" source="C-vyLk0tnHw3VtMMgP7b-14" target="XpnV4tskkDyqHlUHWZ18-173">
          <mxGeometry width="100" height="100" relative="1" as="geometry">
            <mxPoint x="480" y="355" as="sourcePoint" />
            <mxPoint x="570" y="305" as="targetPoint" />
          </mxGeometry>
        </mxCell>
        <mxCell id="XpnV4tskkDyqHlUHWZ18-188" value="" style="edgeStyle=elbowEdgeStyle;endArrow=ERzeroToMany;startArrow=ERone;endFill=1;startFill=0;exitX=1;exitY=0.5;exitDx=0;exitDy=0;entryX=1;entryY=0.5;entryDx=0;entryDy=0;" edge="1" parent="1" source="XpnV4tskkDyqHlUHWZ18-107" target="XpnV4tskkDyqHlUHWZ18-184">
          <mxGeometry width="100" height="100" relative="1" as="geometry">
            <mxPoint x="690" y="100" as="sourcePoint" />
            <mxPoint x="1010" y="160" as="targetPoint" />
            <Array as="points">
              <mxPoint x="770" y="150" />
              <mxPoint x="780" y="290" />
            </Array>
          </mxGeometry>
        </mxCell>
        <mxCell id="XpnV4tskkDyqHlUHWZ18-199" value="Priority" style="text;strokeColor=none;fillColor=none;html=1;fontSize=24;fontStyle=1;verticalAlign=middle;align=center;" vertex="1" parent="1">
          <mxGeometry x="850" y="280" width="100" height="40" as="geometry" />
        </mxCell>
        <mxCell id="XpnV4tskkDyqHlUHWZ18-200" value="&lt;i&gt;Повсякденні задачі:&lt;/i&gt;&amp;nbsp;знайти приміщення і забронювати&lt;br&gt;&lt;i&gt;&lt;u&gt;Аналітика та звітність:&lt;/u&gt;&lt;/i&gt; рейтинг приміщення та/або власника&lt;br&gt;&lt;u&gt;&lt;i&gt;Словники:&lt;/i&gt;&lt;/u&gt;&amp;nbsp;" style="text;html=1;align=left;verticalAlign=middle;resizable=0;points=[];autosize=1;strokeColor=none;fontSize=12;" vertex="1" parent="1">
          <mxGeometry x="850" y="320" width="370" height="50" as="geometry" />
        </mxCell>
      </root>
    </mxGraphModel>
  </diagram>
</mxfile>
